<svg width="42" height="27" viewBox="0 0 42 27" fill="none" xmlns="http://www.w3.org/2000/svg">
<rect x="0.25" y="0.25" width="41.5" height="26.5" rx="3.75" stroke="#143836" stroke-opacity="0.5" stroke-width="0.5"/>
<path d="M14.7208 11.3183C13.289 12.3105 13.3016 14.2195 14.9845 15.1488C14.658 16.0657 14.2059 16.9071 13.4272 17.5225C13.0504 17.8114 12.5983 17.8114 12.1964 17.623C11.5056 17.2965 10.8526 17.309 10.1492 17.623C9.62175 17.8616 9.10683 17.7737 8.67981 17.3341C7.80067 16.4047 7.27318 15.2995 7.05968 14.0311C6.90897 13.0263 7.022 12.0844 7.64996 11.2555C8.24024 10.4768 9.25753 10.1377 10.1618 10.5145C10.7898 10.7531 11.3424 10.7406 11.9578 10.5019C13.0378 10.0749 14.1933 10.4391 14.7208 11.3183Z" fill="#143836"/>
<path d="M16.5293 8.61816C17.961 8.6684 19.3677 8.60561 20.7492 8.78143C22.0177 8.9447 22.8214 10.1504 22.8842 11.444C22.9596 13.1897 21.8418 14.3075 20.5734 14.5335C20.2594 14.5838 19.9454 14.5838 19.6189 14.5963C19.0788 14.6089 18.5513 14.5963 17.961 14.5963C17.961 15.1238 17.961 15.6387 17.961 16.1411C17.961 16.6435 17.961 17.1333 17.961 17.6608C17.4712 17.6608 17.0065 17.6608 16.5293 17.6608C16.5293 14.6717 16.5293 11.6952 16.5293 8.61816ZM17.9862 13.353C18.0866 13.3655 18.1494 13.3655 18.2122 13.3655C18.7648 13.3655 19.3049 13.3655 19.8575 13.353C20.6989 13.3279 21.3018 12.7627 21.4148 11.9212C21.553 10.9918 21.1134 10.1504 20.2719 9.99967C19.5309 9.86152 18.7648 9.8992 17.9862 9.86152C17.9862 11.0546 17.9862 12.185 17.9862 13.353Z" fill="#143836"/>
<path d="M28.8499 17.6617C28.3852 17.6617 27.9456 17.6617 27.4935 17.6617C27.4935 17.3477 27.4935 17.0714 27.4935 16.6821C27.0288 17.3226 26.4762 17.624 25.8105 17.7747C24.5295 18.051 23.2736 17.1719 23.2234 15.8657C23.1982 15.0871 23.4997 14.434 24.5295 14.0698C24.9565 13.9191 25.4212 13.8814 25.8733 13.8311C26.3757 13.7809 26.8906 13.7684 27.393 13.7432C27.5563 12.9394 27.3428 12.412 26.7525 12.2236C26.0366 11.9849 25.0947 12.1985 24.8812 12.8641C24.856 12.952 24.7053 13.0525 24.6174 13.0525C24.2658 13.0776 23.9015 13.065 23.5248 13.065C23.5122 12.5752 23.7006 12.1985 23.9895 11.8719C24.9063 10.8421 26.9911 10.6788 28.0838 11.5328C28.5987 11.9473 28.8499 12.4873 28.8624 13.1153C28.8624 14.5973 28.8499 16.1044 28.8499 17.6617ZM27.3679 14.6977C26.6771 14.7605 26.0115 14.7982 25.3584 14.9112C24.856 14.9992 24.63 15.3383 24.63 15.7904C24.6425 16.2048 24.9063 16.5565 25.371 16.6318C26.5767 16.8454 27.6442 16.1169 27.3679 14.6977Z" fill="#143836"/>
<path d="M29.3648 11.0546C29.8295 11.0546 30.2565 11.0421 30.671 11.0672C30.7714 11.0797 30.8845 11.243 30.9221 11.356C31.412 12.9008 31.8892 14.4456 32.379 15.9904C32.4041 16.0908 32.4418 16.1788 32.5046 16.3546C32.7935 15.4503 33.0446 14.6214 33.3084 13.7925C33.5596 12.9887 33.8359 12.1849 34.0619 11.3686C34.1373 11.13 34.2252 11.0295 34.4764 11.0421C34.8406 11.0546 35.2048 11.0421 35.6318 11.0421C35.3304 11.8835 35.0541 12.6748 34.7653 13.4785C34.175 15.1238 33.5973 16.769 32.9944 18.4017C32.693 19.2306 32.1906 19.8963 31.2612 20.047C30.8719 20.1098 30.4575 20.0596 30.0304 20.0596C30.0304 19.6953 30.0304 19.3437 30.0304 18.9418C30.2063 18.9418 30.3821 18.9418 30.5579 18.9418C31.2864 18.9292 31.8766 18.0878 31.6255 17.397C30.9221 15.4503 30.2188 13.4911 29.5155 11.5444C29.4527 11.4063 29.415 11.2556 29.3648 11.0546Z" fill="#143836"/>
<path d="M12.9374 8.01586C13.063 8.90756 12.3471 10.1132 11.1791 10.2514C11.1038 10.264 10.9405 10.1384 10.9279 10.063C10.8023 9.15875 11.9829 7.92795 12.9123 8.0033C12.9248 8.0033 12.9374 8.01586 12.9374 8.01586Z" fill="#143836"/>
</svg>
