<svg id="Capa_1" data-name="Capa 1" xmlns="http://www.w3.org/2000/svg" viewBox="0 0 36.51 53.36"><defs><style>.cls-1{fill:#133735;}</style></defs><title>candado</title><path class="cls-1" d="M30.37,23.36h-.75V12.76A11.3,11.3,0,1,0,7,12.76v10.6H6.28V12.76a12,12,0,1,1,24.09,0Z"/><path class="cls-1" d="M26.59,23.46h-.75V12.57a7.52,7.52,0,1,0-15,0V23.46h-.75V12.57a8.27,8.27,0,1,1,16.53,0Z"/><path class="cls-1" d="M35.89,52.72H.76V23.32H35.89ZM1.51,52H35.14V24.07H1.51ZM20,40.58H16.66V35.07a3.25,3.25,0,1,1,3.33,0Zm-2.58-.75h1.83V34.62l.21-.11a2.49,2.49,0,1,0-2.24,0l.2.11Z"/></svg>