<svg id="Capa_1" data-name="Capa 1" xmlns="http://www.w3.org/2000/svg" viewBox="0 0 80.68 97.02"><defs><style>.cls-1{fill:#fff;}</style></defs><title>icono</title><path class="cls-1" d="M12.79,8.67a5.11,5.11,0,0,1,.42-2.2A3.34,3.34,0,0,1,14.38,5.1a4.94,4.94,0,0,1,1.82-.7,12.6,12.6,0,0,1,2.29-.2V3.76H2.17V4.2a12.61,12.61,0,0,1,2.32.2,4.86,4.86,0,0,1,1.79.7A3.29,3.29,0,0,1,7.46,6.47a5.11,5.11,0,0,1,.42,2.2V89.05a5.06,5.06,0,0,1-.42,2.19,3.44,3.44,0,0,1-1.18,1.4,4.88,4.88,0,0,1-1.79.72,12.61,12.61,0,0,1-2.32.2v.8H24.24v-.8a43.24,43.24,0,0,1-6-.34,8.87,8.87,0,0,1-3.47-1.14,3.66,3.66,0,0,1-1.59-2.14,12.11,12.11,0,0,1-.38-3.33V8.67Z"/><path class="cls-1" d="M44,40a17.06,17.06,0,0,1,1.87-1.34,14,14,0,0,1,2-1,6.55,6.55,0,0,1,1.21-.35c.26,0,3.6-.07,3.86-.07v-.44H30.08v.44h3.63c1.6,0,2.93,0,4,0a17.16,17.16,0,0,1,2.56.22,2.68,2.68,0,0,1,1.33.54A1.27,1.27,0,0,1,42,39a4.75,4.75,0,0,1-1.22,2.73A45.21,45.21,0,0,1,37.57,45L12.48,68.82l.22.81L42.49,41.27C42.89,40.9,43.38,40.48,44,40Z"/><path class="cls-1" d="M38.46,90.76a18.66,18.66,0,0,0,1.88,1.34,13.52,13.52,0,0,0,2,1,6.33,6.33,0,0,0,1.21.35c.06,0,.65.06,1.11.07h2v.81l-20.93,0-2.62,0,0-.8h5c1.6,0,2.93,0,4,0a15.77,15.77,0,0,0,2.55-.22,2.69,2.69,0,0,0,1.34-.53,1.27,1.27,0,0,0,.38-1,4.68,4.68,0,0,0-1.23-2.73,42.67,42.67,0,0,0-3.17-3.32L13.64,68.09l.53-.5L37,89.48C37.39,89.86,37.88,90.28,38.46,90.76Z"/><path class="cls-1" d="M75.44,20.46a25.77,25.77,0,0,0-5.29-8.55,23.73,23.73,0,0,0-8-5.53,26.64,26.64,0,0,0-20.06,0,24,24,0,0,0-8,5.53,25.47,25.47,0,0,0-5.3,8.55,30.68,30.68,0,0,0-1.91,11v.23a26.47,26.47,0,0,0,1.91,10.1,24.09,24.09,0,0,0,5.29,8.05,24.37,24.37,0,0,0,8,5.31c.62.26,1.24.49,1.88.69s1.25.38,1.89.54c.33.07.65.15,1,.21a5,5,0,0,1,1.24.54,3.38,3.38,0,0,1,1.18,1.38,5.11,5.11,0,0,1,.42,2.2V89.44a5.08,5.08,0,0,1-.42,2.2A3.44,3.44,0,0,1,48,93a4.71,4.71,0,0,1-1.79.72,12.69,12.69,0,0,1-2.32.2v.4H60.25V94a12.6,12.6,0,0,1-2.29-.2A4.79,4.79,0,0,1,56.14,93,3.44,3.44,0,0,1,55,91.64a5.08,5.08,0,0,1-.42-2.2V60.75a5.11,5.11,0,0,1,.42-2.2,3.38,3.38,0,0,1,1.18-1.38,5,5,0,0,1,1.73-.67l.14,0c.78-.18,1.54-.39,2.28-.64s1.19-.41,1.77-.65A24.39,24.39,0,0,0,75.38,41.7a27,27,0,0,0,2-10.2A30.68,30.68,0,0,0,75.44,20.46ZM71,40.8a26.21,26.21,0,0,1-4.16,7.94,20.8,20.8,0,0,1-6.43,5.54,17.22,17.22,0,0,1-2.75,1.2,18.43,18.43,0,0,1-11.19,0,16,16,0,0,1-2.72-1.19,20.56,20.56,0,0,1-6.39-5.47A25.9,25.9,0,0,1,33.2,41a29,29,0,0,1-1.46-9.21V31.5A34.34,34.34,0,0,1,33.2,21.36,27.47,27.47,0,0,1,37.34,13a20.41,20.41,0,0,1,6.43-5.7,17.77,17.77,0,0,1,16.72,0A20.13,20.13,0,0,1,66.9,13,27.68,27.68,0,0,1,71,21.36,34.67,34.67,0,0,1,72.49,31.5,30,30,0,0,1,71,40.8Z"/></svg>