<?xml version="1.0" encoding="utf-8"?>
<!-- Generator: Adobe Illustrator 24.0.2, SVG Export Plug-In . SVG Version: 6.00 Build 0)  -->
<svg version="1.1" id="Capa_1" xmlns="http://www.w3.org/2000/svg" xmlns:xlink="http://www.w3.org/1999/xlink" x="0px" y="0px"
	 viewBox="0 0 166.98 222.13" style="enable-background:new 0 0 166.98 222.13;" xml:space="preserve">
<style type="text/css">
	.st0{stroke:#000000;stroke-miterlimit:10;}
	.st1{fill:none;stroke:#000000;stroke-width:0.75;}
	.st2{fill:#FFFFFF;}
	.st3{fill:#1F3837;}
	.st4{fill:#A2392E;}
	.st5{fill:#903731;}
</style>
<g>
	<path class="st2" d="M57.14,141.84h-0.38c-0.23,1.64-0.69,3.27-1.39,4.89c-0.69,1.62-1.54,3.05-2.54,4.31
		c-1,1.26-2.1,2.28-3.31,3.06c-1.21,0.78-2.42,1.17-3.66,1.17h-6.29c0,0.31,0,0.55,0,0.77h15.6L57.14,141.84z"/>
	<path class="st2" d="M115.01,156.05v-0.79c0.85,0,1.62-0.07,2.31-0.2c0.69-0.13,1.29-0.37,1.8-0.72c0.51-0.35,0.9-0.81,1.18-1.4
		c0.28-0.59,0.42-1.32,0.42-2.19v-47.41c0-0.88-0.14-1.61-0.42-2.19c-0.28-0.59-0.67-1.04-1.18-1.38c-0.51-0.33-1.1-0.56-1.8-0.7
		c-0.69-0.13-4.49-0.2-5.34-0.2v-0.44h26.21c5.64,0,9.9,1.1,12.77,3.29c2.87,2.19,4.31,5.27,4.31,9.24c0,1.68-0.35,3.21-1.04,4.61
		c-0.69,1.4-1.62,2.69-2.79,3.87c-1.17,1.18-2.52,2.28-4.05,3.29c-1.53,1.01-3.13,1.97-4.81,2.87c-1.68,0.9-3.37,1.78-5.07,2.63
		c-1.7,0.85-3.32,1.71-4.85,2.57c-1.53,0.86-2.91,1.76-4.13,2.67c-1.22,0.92-2.19,1.9-2.91,2.93v11.89c0,1.52,0.13,2.73,0.38,3.65
		c0.25,0.92,0.78,1.62,1.6,2.12c0.81,0.49,1.97,0.81,3.47,0.96c1.5,0.15,3.77,0.22,6.27,0.22v0.79H115.01z M125.63,135.62
		c0.9-1.36,2.13-2.64,3.69-3.85c1.56-1.21,3.24-2.41,5.05-3.61c1.81-1.2,3.64-2.43,5.49-3.69c1.85-1.26,3.52-2.63,5.03-4.09
		c1.5-1.46,2.73-3.07,3.67-4.83c0.94-1.76,1.42-3.72,1.42-5.91c0-1.92-0.3-3.53-0.9-4.85c-0.6-1.32-1.43-2.38-2.49-3.19
		c-1.06-0.81-2.31-1.4-3.75-1.78c-1.44-0.37-2.98-0.56-4.63-0.56h-12.57V135.62z"/>
	<path class="st2" d="M136.7,97.53c-1.25-0.65-2.18-1.83-2.79-3.53l-18.68-52.31H97.17v0.44c1.92,0,6.67,0.04,8.08,0.12
		c1.41,0.08,2.59,0.25,3.53,0.52c0.94,0.27,1.65,0.65,2.12,1.16c0.47,0.51,0.7,1.18,0.7,2.04c0,0.8-0.23,1.84-0.68,3.11
		c-1.04,2.9-1.92,5.39-2.65,7.48c-0.73,2.09-1.36,3.88-1.89,5.39c-0.53,1.5-0.98,2.77-1.36,3.81c-0.37,1.04-0.7,1.96-0.98,2.77
		c-0.28,0.81-0.55,1.56-0.8,2.23c-0.25,0.68-0.52,1.42-0.8,2.23c-0.28,0.81-0.61,1.74-0.98,2.77s-0.82,2.3-1.34,3.79
		c-0.52,1.49-1.14,3.27-1.88,5.35c-0.73,2.08-1.6,4.55-2.61,7.42c-0.16,0.45-0.47,1.03-0.94,1.74c-0.47,0.7-1.02,1.38-1.68,2.03
		c-0.65,0.65-1.38,1.22-2.18,1.7c-0.8,0.48-4.27,0.72-5.12,0.72v0.4h20.77v-0.4c-2.63,0-1.44-0.05-3.21-0.14
		c-1.77-0.09-3.19-0.28-4.27-0.56c-1.08-0.28-1.84-0.66-2.29-1.14c-0.45-0.48-0.68-1.1-0.68-1.88c0-0.45,0.07-0.94,0.2-1.48
		c0.13-0.53,0.31-1.12,0.52-1.76l15.6-44.09L129,94c0.27,0.69,0.4,1.32,0.4,1.88c0,1.01-0.41,1.7-1.24,2.07
		c-0.83,0.37-3.91,0.56-5.27,0.56v0.4h17.96v-0.4C139.34,98.51,137.95,98.18,136.7,97.53z"/>
	<path class="st2" d="M24.78,155.25c0.64-0.4,1.2-0.94,1.7-1.64c0.49-0.69,0.74-1.52,0.74-2.47v-47.41c0-0.88,0.14-1.61,0.42-2.19
		c0.28-0.59,0.67-1.04,1.18-1.38c0.5-0.33,1.11-0.56,1.81-0.7c0.71-0.13,2.07-0.19,2.9-0.19l0-0.8H16.6v0.79
		c0.85,0,1.62,0.07,2.31,0.2c0.69,0.13,1.29,0.37,1.8,0.7c0.51,0.33,0.9,0.79,1.18,1.38c0.28,0.59,0.42,1.32,0.42,2.19v47.41
		c0,0.88-0.14,1.61-0.42,2.19c-0.28,0.59-0.67,1.05-1.18,1.4c-0.51,0.35-1.1,0.59-1.8,0.72c-0.69,0.13-1.46,0.2-2.31,0.2v0.4h36.58
		c0-0.27,0-0.53,0-0.8H24.78z"/>
	<path class="st2" d="M105.28,118.91c-1.27-3.32-3.04-6.17-5.29-8.55c-2.25-2.38-4.91-4.22-7.98-5.53
		c-3.07-1.31-6.42-1.97-10.04-1.97c-3.6,0-6.94,0.66-10.02,1.97c-3.08,1.31-5.76,3.16-8.02,5.53c-2.26,2.38-4.03,5.23-5.3,8.55
		c-1.27,3.32-1.91,7-1.91,11.04v0.22c0,3.63,0.64,7,1.91,10.11c1.27,3.11,3.04,5.8,5.29,8.05c2.25,2.25,4.91,4.02,7.96,5.31
		c0.62,0.26,1.24,0.48,1.88,0.69c0.62,0.2,1.25,0.38,1.89,0.53c0.33,0.08,0.65,0.15,0.98,0.22c0.46,0.14,0.88,0.3,1.24,0.54
		c0.51,0.33,0.9,0.79,1.18,1.38c0.28,0.59,0.42,1.32,0.42,2.2v39.36c0,0.88-0.14,1.61-0.42,2.2c-0.28,0.59-0.67,1.05-1.18,1.4
		c-0.51,0.35-1.1,0.59-1.8,0.72c-0.69,0.13-1.46,0.2-2.32,0.2v0.4H90.1v-0.4c-0.83,0-1.59-0.07-2.3-0.2
		c-0.71-0.13-1.31-0.37-1.82-0.72c-0.51-0.35-0.9-0.81-1.18-1.4c-0.28-0.59-0.42-1.32-0.42-2.2V159.2c0-0.88,0.14-1.61,0.42-2.2
		c0.28-0.59,0.67-1.04,1.18-1.38c0.48-0.32,1.07-0.54,1.73-0.68c0.05-0.01,0.09-0.02,0.14-0.03c0.77-0.18,1.53-0.39,2.28-0.64
		c0.6-0.2,1.19-0.41,1.77-0.66c3.07-1.3,5.74-3.09,8-5.37c2.26-2.28,4.04-4.98,5.32-8.1c1.29-3.12,1.94-6.52,1.96-10.2
		C107.19,125.91,106.56,122.23,105.28,118.91z M100.82,139.25c-0.99,2.99-2.37,5.64-4.16,7.94c-1.79,2.3-3.93,4.15-6.43,5.53
		c-0.88,0.49-1.8,0.88-2.75,1.2c-1.75,0.58-3.62,0.88-5.61,0.88c-1.98,0-3.84-0.29-5.58-0.87c-0.94-0.31-1.85-0.7-2.72-1.19
		c-2.49-1.37-4.62-3.2-6.39-5.48c-1.77-2.28-3.15-4.89-4.13-7.85c-0.98-2.95-1.46-6.02-1.46-9.21v-0.26c0-3.58,0.49-6.96,1.46-10.14
		c0.98-3.19,2.36-5.98,4.14-8.38c1.79-2.4,3.93-4.3,6.43-5.7c2.5-1.4,5.29-2.09,8.36-2.09s5.86,0.7,8.36,2.09
		c2.5,1.4,4.64,3.3,6.41,5.7c1.77,2.4,3.15,5.19,4.13,8.38c0.98,3.19,1.46,6.57,1.46,10.14
		C102.31,133.16,101.8,136.26,100.82,139.25z"/>
	<path class="st2" d="M141.83,211.45c-1.25-0.65-2.18-1.83-2.79-3.53l-18.77-52.67h-14.08l0.07,0.8c1.92,0,2.74,0,4.15,0.08
		c1.41,0.08,2.57,0.29,3.51,0.55c0.94,0.27,1.65,0.65,2.12,1.16c0.47,0.51,0.7,1.18,0.7,2.04c0,0.8-0.23,1.84-0.68,3.11
		c-1.04,2.9-1.92,5.39-2.65,7.48c-0.73,2.09-1.36,3.88-1.89,5.39c-0.53,1.5-0.98,2.77-1.36,3.81c-0.37,1.04-0.7,1.96-0.98,2.77
		c-0.28,0.81-0.55,1.56-0.8,2.23c-0.25,0.68-0.52,1.42-0.8,2.23c-0.28,0.81-0.61,1.74-0.98,2.77c-0.37,1.04-0.82,2.3-1.34,3.79
		c-0.52,1.49-1.14,3.27-1.88,5.35c-0.73,2.08-1.6,4.55-2.61,7.42c-0.16,0.45-0.47,1.03-0.94,1.74c-0.47,0.7-1.02,1.38-1.68,2.03
		c-0.65,0.65-1.38,1.22-2.17,1.7c-0.8,0.48-1.62,0.72-2.47,0.72v0.4h21.51v-0.4c-2.63,0-4.84-0.05-6.61-0.14
		c-1.77-0.09-3.19-0.28-4.27-0.56c-1.08-0.28-1.84-0.66-2.29-1.14c-0.45-0.48-0.68-1.1-0.68-1.88c0-0.45,0.07-0.94,0.2-1.48
		c0.13-0.53,0.31-1.12,0.52-1.76l15.6-44.09l11.45,31.96l5.19,14.57c0.27,0.69,0.4,1.32,0.4,1.88c0,1.01-0.41,1.7-1.24,2.07
		c-0.82,0.37-1.92,0.56-3.27,0.56v0.4h15.96v-0.4C144.46,212.43,143.08,212.1,141.83,211.45z"/>
	<path class="st2" d="M44.1,13.59c0-0.88,0.14-1.61,0.42-2.19c0.28-0.59,0.67-1.04,1.18-1.38c0.51-0.33,1.11-0.56,1.82-0.7
		c0.71-0.13,1.47-0.2,2.3-0.2V8.68H33.48v0.44c0.85,0,1.62,0.07,2.31,0.2c0.69,0.13,1.29,0.37,1.8,0.7c0.51,0.33,0.9,0.79,1.18,1.38
		c0.28,0.59,0.42,1.32,0.42,2.19v80.38c0,0.88-0.14,1.61-0.42,2.19c-0.28,0.59-0.67,1.05-1.18,1.4c-0.51,0.35-1.1,0.59-1.8,0.72
		c-0.69,0.13-1.46,0.2-2.31,0.2l0,0.8h22.07v-0.8c-2.5,0-4.5-0.11-6.01-0.34c-1.5-0.23-2.66-0.6-3.47-1.14
		c-0.81-0.53-1.34-1.24-1.6-2.14c-0.25-0.89-0.38-2-0.38-3.33V70.5V13.59z"/>
	<path class="st2" d="M75.28,44.92c0.58-0.48,1.21-0.92,1.88-1.34c0.67-0.41,1.34-0.76,2.04-1.04c0.41-0.17,0.82-0.28,1.21-0.35
		c0.26-0.05,3.6-0.07,3.86-0.07v-0.44H61.39v0.44h3.63c1.6,0,2.93,0.01,3.99,0.04c1.06,0.03,1.92,0.1,2.55,0.22
		c0.64,0.12,1.08,0.3,1.34,0.54c0.25,0.24,0.38,0.56,0.38,0.96c0,0.75-0.44,1.8-1.23,2.73c-0.78,0.93-1.84,2.04-3.17,3.31
		L43.8,73.74l0.22,0.81L73.8,46.19C74.2,45.82,74.69,45.4,75.28,44.92z"/>
	<path class="st2" d="M69.78,95.68c0.58,0.48,1.21,0.92,1.88,1.34c0.67,0.41,1.34,0.76,2.04,1.04c0.41,0.17,0.82,0.28,1.21,0.35
		c0.07,0.01,0.65,0.07,1.11,0.07c0.46,0,1.85,0,2.05,0v0.8l-20.93-0.01l-2.61,0.01l-0.03-0.8l2.66,0h2.38c1.6,0,2.93-0.01,3.99-0.04
		c1.06-0.03,1.92-0.1,2.55-0.22c0.64-0.12,1.08-0.3,1.34-0.54c0.25-0.24,0.38-0.56,0.38-0.96c0-0.75-0.44-1.8-1.23-2.73
		c-0.78-0.93-1.84-2.04-3.17-3.31L44.95,73.01l0.53-0.5L68.3,94.4C68.7,94.78,69.19,95.2,69.78,95.68z"/>
	<rect x="101.41" y="76.99" class="st2" width="25.73" height="0.46"/>
	<rect x="106.22" y="190.09" class="st2" width="25.73" height="0.46"/>
	<path class="st2" d="M132.33,155.63c0,0-7.51-0.16-8.94,0.99c-0.86,0.69-1.96,1.85-0.14,6.95l-4.07-8.95L132.33,155.63z"/>
	<g>
		<path class="st2" d="M55.42,154.65c0,0-0.09-0.03-0.13-0.04c-11.28-3.18-30.82,1.31-23.93,15.55
			c6.18,10.76,28.39,13.35,28.26,27.86c-0.04,13.34-18.42,16.19-25.77,6.88c-2.89-3.72-4.29-9.61-2.54-13.86
			c0.4-1.04,1.5-1.91,2.19-2.6c-3.14-1.68-6.56,0.54-7.23,3.82c-2.98,14.91,15.49,22.1,27.43,17.5c8.03-2.65,13.42-12.39,9.29-20.12
			c-3.25-5.49-9.62-8.43-15.18-11.38c-5.22-2.96-11.4-5.56-14.98-10.29c-3.47-5.02-0.48-10.55,5.31-11.67
			c2.39-0.57,17.22-0.32,17.22-0.32L55.42,154.65z"/>
	</g>
</g>
</svg>
