<?xml version="1.0" encoding="utf-8"?>
<!-- Generator: Adobe Illustrator 24.0.2, SVG Export Plug-In . SVG Version: 6.00 Build 0)  -->
<svg version="1.1" id="Capa_1" xmlns="http://www.w3.org/2000/svg" xmlns:xlink="http://www.w3.org/1999/xlink" x="0px" y="0px"
	 viewBox="0 0 134.81 47.74" style="enable-background:new 0 0 134.81 47.74;" xml:space="preserve">
<style type="text/css">
	.st0{stroke:#000000;stroke-miterlimit:10;}
	.st1{fill:none;stroke:#000000;stroke-width:0.75;}
	.st2{fill:#FFFFFF;}
	.st3{fill:#1F3837;}
	.st4{fill:#A2392E;}
	.st5{fill:#903731;}
</style>
<g>
	<path class="st2" d="M34.8,37v-0.23c0.49,0,0.93-0.04,1.33-0.11c0.4-0.08,0.74-0.21,1.03-0.41c0.29-0.2,0.52-0.47,0.68-0.8
		c0.16-0.34,0.24-0.76,0.24-1.26v-7.48c0-3.9-0.56-6.86-1.69-8.87c-1.12-2.01-2.71-3.02-4.76-3.02c-1.44,0-2.64,0.6-3.61,1.81
		c-0.97,1.21-1.7,2.93-2.19,5.16c0.23,1.21,0.34,2.52,0.34,3.95v8.45c0,0.5,0.08,0.93,0.24,1.26c0.16,0.34,0.39,0.6,0.68,0.8
		c0.29,0.2,0.64,0.34,1.04,0.41c0.41,0.08,0.85,0.11,1.32,0.11V37h-9.11v-0.23c0.49,0,0.93-0.04,1.33-0.11
		c0.4-0.08,0.74-0.21,1.03-0.41c0.29-0.2,0.52-0.47,0.68-0.8c0.16-0.34,0.24-0.76,0.24-1.26v-7.39c0-3.93-0.56-6.91-1.67-8.94
		c-1.12-2.03-2.71-3.04-4.77-3.04c-0.75,0-1.46,0.16-2.12,0.49c-0.67,0.33-1.25,0.77-1.74,1.32s-0.89,1.19-1.18,1.93
		c-0.29,0.73-0.44,1.51-0.44,2.34v13.29c0,0.5,0.08,0.93,0.24,1.26c0.16,0.34,0.39,0.6,0.69,0.8c0.3,0.2,0.65,0.34,1.06,0.41
		c0.41,0.08,0.85,0.11,1.32,0.11V37H5.89v-0.23c0.49,0,0.93-0.04,1.33-0.11c0.4-0.08,0.74-0.21,1.03-0.41
		c0.29-0.2,0.52-0.47,0.68-0.8c0.16-0.34,0.24-0.76,0.24-1.26V17.26c0-0.5-0.08-0.93-0.24-1.26c-0.16-0.34-0.39-0.6-0.68-0.8
		c-0.29-0.2-0.64-0.34-1.03-0.41c-0.4-0.08-0.84-0.12-1.33-0.12v-0.23c0.64,0,1.28-0.03,1.91-0.08c0.63-0.05,1.2-0.13,1.72-0.23
		c0.52-0.1,0.95-0.23,1.3-0.4c0.34-0.17,0.56-0.37,0.65-0.6h0.23v5.37c0.18-0.58,0.47-1.14,0.86-1.67c0.39-0.54,0.86-1.02,1.42-1.45
		c0.56-0.43,1.2-0.77,1.93-1.02c0.73-0.25,1.52-0.38,2.38-0.38c0.93,0,1.79,0.16,2.56,0.47c0.77,0.31,1.47,0.76,2.09,1.34
		c0.62,0.58,1.15,1.29,1.59,2.13c0.44,0.84,0.8,1.78,1.08,2.82c0.21-0.83,0.49-1.64,0.83-2.46c0.34-0.81,0.78-1.54,1.33-2.18
		c0.55-0.64,1.23-1.16,2.03-1.55c0.8-0.39,1.79-0.58,2.95-0.58c1.25,0,2.37,0.28,3.35,0.85c0.98,0.57,1.8,1.37,2.48,2.4
		c0.67,1.03,1.19,2.27,1.54,3.71c0.35,1.44,0.53,3.04,0.53,4.8v8.45c0,0.5,0.08,0.93,0.24,1.26c0.16,0.34,0.39,0.6,0.68,0.8
		c0.29,0.2,0.64,0.34,1.04,0.41c0.41,0.08,0.85,0.11,1.32,0.11V37H34.8z"/>
	<path class="st2" d="M59.19,37c-1.53,0-2.97-0.28-4.31-0.85c-1.35-0.57-2.52-1.37-3.51-2.4c-1-1.03-1.78-2.27-2.36-3.72
		c-0.58-1.45-0.87-3.04-0.87-4.79c0-1.76,0.28-3.36,0.83-4.8c0.55-1.44,1.31-2.67,2.27-3.71c0.96-1.03,2.1-1.83,3.42-2.4
		c1.32-0.57,2.75-0.85,4.29-0.85c1.22,0,2.36,0.24,3.42,0.72c1.06,0.48,1.97,1.13,2.74,1.94c0.77,0.81,1.38,1.74,1.82,2.79
		c0.44,1.05,0.67,2.15,0.67,3.29c0,1.36-0.23,2.55-0.7,3.57c-0.47,1.02-1.11,1.87-1.92,2.55c-0.81,0.68-1.76,1.19-2.85,1.53
		c-1.09,0.34-2.26,0.5-3.51,0.5c-1.25,0-2.36-0.18-3.3-0.55c-0.95-0.37-1.74-0.84-2.39-1.41c-0.64-0.57-1.13-1.21-1.46-1.89
		c-0.33-0.69-0.49-1.36-0.49-2.02c0-0.4,0.14-0.79,0.42-1.19c0.28-0.4,0.74-0.67,1.37-0.8c0,0.79,0.13,1.63,0.39,2.5
		c0.26,0.87,0.65,1.67,1.16,2.4c0.51,0.73,1.15,1.33,1.92,1.8c0.76,0.47,1.64,0.71,2.64,0.71c0.89,0,1.72-0.21,2.49-0.63
		s1.44-0.98,2.01-1.66c0.57-0.69,1.01-1.46,1.34-2.33s0.49-1.74,0.49-2.63v-0.18c0-1.29-0.19-2.44-0.57-3.46
		c-0.38-1.03-0.91-1.9-1.57-2.63c-0.67-0.73-1.44-1.28-2.33-1.66c-0.89-0.38-1.83-0.57-2.82-0.57c-1.03,0-1.99,0.24-2.89,0.71
		c-0.9,0.47-1.69,1.13-2.35,1.96c-0.67,0.83-1.19,1.81-1.58,2.94c-0.39,1.13-0.58,2.33-0.58,3.61c0,1.59,0.23,3.12,0.68,4.58
		s1.11,2.75,1.96,3.86c0.86,1.11,1.91,2,3.16,2.66c1.25,0.67,2.66,1,4.23,1c1.62,0,3.02-0.29,4.19-0.86
		c1.17-0.57,2.15-1.4,2.93-2.49l0.23,0.16c-1.01,1.48-2.22,2.64-3.63,3.47C62.83,36.59,61.15,37,59.19,37z"/>
	<path class="st2" d="M78.39,13.13v5.46c0.2-0.58,0.52-1.15,0.95-1.7c0.44-0.55,0.96-1.04,1.57-1.48c0.61-0.44,1.3-0.78,2.08-1.04
		c0.77-0.26,1.59-0.39,2.47-0.39c1.53,0,2.9,0.28,4.12,0.85c1.22,0.57,2.25,1.37,3.1,2.4c0.85,1.03,1.5,2.27,1.95,3.71
		c0.45,1.44,0.68,3.04,0.68,4.8v8.45c0,0.5,0.08,0.93,0.24,1.26c0.16,0.34,0.39,0.6,0.68,0.8c0.29,0.2,0.64,0.34,1.04,0.41
		c0.41,0.08,0.85,0.11,1.34,0.11V37h-9.13v-0.23c0.49,0,0.94-0.04,1.34-0.11c0.41-0.08,0.75-0.21,1.04-0.41
		c0.29-0.2,0.52-0.47,0.68-0.8c0.16-0.34,0.24-0.76,0.24-1.26v-6.61c0-4.16-0.69-7.33-2.08-9.5c-1.38-2.17-3.5-3.26-6.35-3.26
		c-0.75,0-1.48,0.16-2.2,0.49c-0.72,0.33-1.36,0.77-1.92,1.32c-0.56,0.55-1.01,1.19-1.34,1.93c-0.34,0.73-0.5,1.51-0.5,2.34v13.29
		c0,0.5,0.08,0.93,0.24,1.26c0.16,0.34,0.39,0.6,0.69,0.8c0.3,0.2,0.65,0.34,1.06,0.41c0.41,0.08,0.84,0.11,1.32,0.11V37h-9.11
		v-0.23c0.49,0,0.93-0.04,1.33-0.11c0.4-0.08,0.74-0.21,1.03-0.41c0.29-0.2,0.52-0.47,0.68-0.8c0.16-0.34,0.24-0.76,0.24-1.26V17.26
		c0-0.5-0.08-0.93-0.24-1.26c-0.16-0.34-0.39-0.6-0.68-0.8c-0.29-0.2-0.63-0.34-1.03-0.41c-0.4-0.08-0.84-0.12-1.33-0.12v-0.23
		c0.64,0,1.28-0.03,1.9-0.08c0.63-0.05,1.2-0.13,1.72-0.23c0.52-0.1,0.95-0.23,1.3-0.4c0.34-0.17,0.56-0.37,0.65-0.6H78.39z"/>
	<path class="st2" d="M126.66,35.51c-0.35,0.6-0.8,1.08-1.33,1.45c-0.54,0.37-1.22,0.55-2.04,0.55c-1.19,0-2.1-0.38-2.72-1.12
		c-0.62-0.75-0.97-1.94-1.04-3.56c-0.2,0.58-0.51,1.16-0.94,1.72c-0.43,0.57-0.95,1.07-1.57,1.5c-0.62,0.44-1.32,0.79-2.1,1.06
		s-1.61,0.4-2.48,0.4c-1.53,0-2.84-0.26-3.94-0.79c-1.09-0.53-1.99-1.27-2.7-2.23c-0.7-0.96-1.22-2.11-1.56-3.47
		c-0.34-1.35-0.5-2.86-0.5-4.51v-9.22c0-0.51-0.08-0.93-0.24-1.26c-0.16-0.34-0.39-0.6-0.69-0.79c-0.3-0.19-0.65-0.32-1.04-0.4
		c-0.4-0.08-0.84-0.11-1.33-0.11v-0.23c0.64,0,1.28-0.03,1.92-0.08c0.63-0.05,1.21-0.13,1.72-0.24c0.51-0.11,0.94-0.25,1.3-0.41
		c0.35-0.17,0.57-0.37,0.67-0.6h0.23v11.52c0,1.94,0.12,3.66,0.34,5.15c0.23,1.49,0.62,2.75,1.17,3.76c0.55,1.02,1.29,1.79,2.2,2.31
		c0.92,0.52,2.06,0.78,3.44,0.78c0.75,0,1.49-0.16,2.21-0.49s1.38-0.77,1.95-1.33c0.57-0.56,1.04-1.21,1.39-1.94
		c0.35-0.73,0.53-1.51,0.53-2.32V17.29c0-0.51-0.08-0.93-0.24-1.26c-0.16-0.34-0.39-0.6-0.68-0.79c-0.29-0.19-0.63-0.32-1.03-0.4
		c-0.4-0.08-0.84-0.11-1.33-0.11v-0.23c0.64,0,1.28-0.03,1.9-0.08c0.63-0.05,1.2-0.13,1.72-0.24c0.52-0.11,0.95-0.25,1.3-0.41
		c0.34-0.17,0.56-0.37,0.65-0.6h0.25V31.7c0,1.54,0.18,2.74,0.54,3.59c0.36,0.85,1,1.27,1.92,1.27c0.5,0,0.91-0.13,1.22-0.38
		c0.31-0.25,0.56-0.52,0.76-0.79L126.66,35.51z M110.28,11.48l1.79-6.1h3.05l-4.41,6.1H110.28z"/>
</g>
</svg>
