<?xml version="1.0" encoding="utf-8"?>
<!-- Generator: Adobe Illustrator 24.0.2, SVG Export Plug-In . SVG Version: 6.00 Build 0)  -->
<svg version="1.1" id="Capa_1" xmlns="http://www.w3.org/2000/svg" xmlns:xlink="http://www.w3.org/1999/xlink" x="0px" y="0px"
	 viewBox="0 0 67.4 71.74" style="enable-background:new 0 0 67.4 71.74;" xml:space="preserve">
<style type="text/css">
	.st0{fill:#133735;}
	.st1{fill:none;stroke:#9F9F93;stroke-width:0.3;stroke-miterlimit:10;}
	.st2{fill:none;stroke:#9F9F93;stroke-width:0.2202;stroke-miterlimit:10;}
	.st3{clip-path:url(#SVGID_5_);}
	.st4{fill:none;stroke:#FFFFFF;stroke-width:2.936;stroke-linecap:round;stroke-miterlimit:10;}
	.st5{fill:none;stroke:#FFFFFF;stroke-width:2.936;stroke-linecap:round;stroke-linejoin:round;stroke-miterlimit:10;}
	.st6{fill:#FFFFFF;}
	.st7{fill:none;stroke:#FFFFFF;stroke-width:1.9457;stroke-linecap:round;stroke-linejoin:round;stroke-miterlimit:10;}
	.st8{clip-path:url(#SVGID_7_);}
	.st9{fill:none;stroke:#9FD65F;stroke-width:0.2202;stroke-miterlimit:10;}
	.st10{fill:none;stroke:#FFFFFF;stroke-width:2.1399;stroke-linecap:round;stroke-linejoin:round;stroke-miterlimit:10;}
	.st11{fill:none;stroke:#FFFFFF;stroke-width:2.1414;stroke-linecap:round;stroke-linejoin:round;stroke-miterlimit:10;}
	.st12{clip-path:url(#SVGID_9_);}
	.st13{clip-path:url(#SVGID_11_);}
	.st14{clip-path:url(#SVGID_13_);}
	.st15{clip-path:url(#SVGID_15_);}
	.st16{clip-path:url(#SVGID_17_);}
	.st17{clip-path:url(#SVGID_19_);}
	.st18{clip-path:url(#SVGID_21_);}
	.st19{clip-path:url(#SVGID_23_);}
	.st20{fill:none;stroke:#FFFFFF;stroke-width:0.75;stroke-linecap:round;stroke-linejoin:round;stroke-miterlimit:10;}
	.st21{fill:none;stroke:#FFFFFF;stroke-width:2.2159;stroke-linecap:round;stroke-linejoin:round;stroke-miterlimit:10;}
	.st22{fill:none;stroke:#FFFFFF;stroke-width:1.9436;stroke-miterlimit:10;}
	.st23{fill:none;stroke:#FFFFFF;stroke-width:2.3136;stroke-linecap:round;stroke-linejoin:round;stroke-miterlimit:10;}
	.st24{fill:none;stroke:#FFFFFF;stroke-width:3.5849;stroke-linecap:round;stroke-linejoin:round;stroke-miterlimit:10;}
	.st25{fill:none;stroke:#FFFFFF;stroke-width:2.535;stroke-linecap:round;stroke-linejoin:round;stroke-miterlimit:10;}
	.st26{fill:none;stroke:#FFFFFF;stroke-width:2.1598;stroke-linecap:round;stroke-linejoin:round;stroke-miterlimit:10;}
	.st27{fill:none;stroke:#FFFFFF;stroke-width:2.1598;stroke-miterlimit:10;}
	.st28{clip-path:url(#SVGID_25_);}
	.st29{clip-path:url(#SVGID_27_);}
	.st30{clip-path:url(#SVGID_29_);}
	.st31{clip-path:url(#SVGID_31_);}
	.st32{clip-path:url(#SVGID_33_);}
	.st33{clip-path:url(#SVGID_35_);}
	.st34{clip-path:url(#SVGID_37_);}
	.st35{clip-path:url(#SVGID_39_);}
	.st36{clip-path:url(#SVGID_41_);}
	.st37{clip-path:url(#SVGID_43_);}
	.st38{clip-path:url(#SVGID_45_);}
	.st39{clip-path:url(#SVGID_47_);}
	.st40{clip-path:url(#SVGID_49_);}
	.st41{clip-path:url(#SVGID_51_);}
	.st42{clip-path:url(#SVGID_53_);}
	.st43{clip-path:url(#SVGID_55_);}
	.st44{clip-path:url(#SVGID_57_);}
	.st45{clip-path:url(#SVGID_59_);}
	.st46{fill:none;stroke:#133735;stroke-width:0.5;stroke-miterlimit:10;}
	.st47{fill:none;stroke:#133735;stroke-width:0.75;stroke-miterlimit:10;}
	.st48{fill:none;stroke:#133735;stroke-width:0.75;stroke-linecap:round;stroke-linejoin:round;stroke-miterlimit:10;}
	.st49{fill:none;stroke:#133735;stroke-width:0.8206;stroke-miterlimit:10;}
	.st50{fill:none;stroke:#FFFFFF;stroke-width:0.8206;stroke-miterlimit:10;}
	.st51{fill:none;stroke:#133735;stroke-width:0.7886;stroke-miterlimit:10;}
	.st52{fill:none;stroke:#133735;stroke-width:0.8525;stroke-miterlimit:10;}
	.st53{fill:none;stroke:#133735;stroke-width:0.8821;stroke-miterlimit:10;}
	.st54{fill:none;stroke:#133735;stroke-width:0.7959;stroke-miterlimit:10;}
	.st55{fill:none;stroke:#133735;stroke-width:0.79;stroke-miterlimit:10;}
	.st56{fill:none;stroke:#FFFFFF;stroke-width:0.79;stroke-miterlimit:10;}
	.st57{fill:none;stroke:#133735;stroke-width:0.8704;stroke-miterlimit:10;}
	.st58{fill:none;stroke:#133735;stroke-width:0.7785;stroke-miterlimit:10;}
	.st59{fill:none;stroke:#133735;stroke-width:0.8832;stroke-miterlimit:10;}
	.st60{fill:none;stroke:#133735;stroke-width:0.8255;stroke-miterlimit:10;}
	.st61{fill:none;stroke:#133735;stroke-width:0.8634;stroke-miterlimit:10;}
	.st62{fill:none;stroke:#133735;stroke-width:0.7985;stroke-miterlimit:10;}
	.st63{fill:none;stroke:#133735;stroke-width:0.8642;stroke-miterlimit:10;}
	.st64{fill:none;stroke:#133735;stroke-width:0.8367;stroke-miterlimit:10;}
	.st65{fill:none;stroke:#133735;stroke-width:0.8173;stroke-miterlimit:10;}
	.st66{fill:none;stroke:#FFFFFF;stroke-width:1.5;stroke-miterlimit:10;}
	.st67{fill:none;stroke:#9F9F93;stroke-width:0.1352;stroke-miterlimit:10;}
	.st68{clip-path:url(#SVGID_60_);}
	.st69{fill:none;stroke:#9FD65F;stroke-width:0.1352;stroke-miterlimit:10;}
	.st70{fill:none;stroke:#133735;stroke-width:1.5;stroke-miterlimit:10;}
	.st71{clip-path:url(#SVGID_61_);}
	.st72{clip-path:url(#SVGID_62_);}
	.st73{fill:none;stroke:#9FD65F;stroke-width:0.1515;stroke-miterlimit:10;}
</style>
<g>
	<path class="st50" d="M21.39,24.5c0.21,5.28,4.65,7.56,4.65,7.56l4.87-4.33c0,0,0.62-1.88,0.62-3.3c0-3.46-2.22-6.54-4.53-7.13
		c-0.15-0.04-2.77-8.81-2.77-8.81l-1.09,10.1C23.14,18.59,21.21,20.1,21.39,24.5z"/>
	<path class="st50" d="M11.25,36.93c0.86,2.89,4.83,5.33,4.83,5.33L20.4,38c0,0,0.01-2.4-0.37-3.68c-0.87-2.93-2.89-5.03-4.92-5.35
		c-0.13-0.02-4.45-7.11-4.45-7.11s1.39,8.32,1.28,8.46C10.81,31.82,10.48,34.35,11.25,36.93z"/>
	<path class="st50" d="M46.95,24.35c-0.21,5.28-4.53,7.49-4.53,7.49l-4.99-4.26c0,0-0.62-1.88-0.62-3.3c0-3.46,2.22-6.54,4.53-7.13
		c0.15-0.04,2.77-8.81,2.77-8.81l1.09,10.1C45.2,18.45,47.13,19.96,46.95,24.35z"/>
	<path class="st50" d="M57.08,36.98c-0.86,2.89-4.83,5.33-4.83,5.33l-4.31-4.27c0,0-0.01-2.4,0.37-3.68
		c0.87-2.93,2.89-5.03,4.92-5.35c0.13-0.02,4.45-7.11,4.45-7.11s-1.39,8.32-1.28,8.46C57.53,31.86,57.86,34.39,57.08,36.98z"/>
	<polygon class="st50" points="28.51,40.38 34.15,34.74 39.78,40.38 50.86,51.46 51.05,62.91 39.78,62.91 34.15,57.28 28.51,62.91 
		17.25,62.91 17.25,51.64 	"/>
</g>
</svg>
