<svg width="42" height="27" viewBox="0 0 42 27" fill="none" xmlns="http://www.w3.org/2000/svg">
<path d="M6.15519 16.0093C6.35499 15.1851 6.56728 14.3734 6.75459 13.5492C6.99185 12.5502 7.21663 11.5512 7.4414 10.5522C7.50384 10.29 7.62871 10.0527 7.90344 10.0527C8.9399 10.0652 9.98885 10.0652 11.0128 10.1526C11.6747 10.2151 12.2366 10.5522 12.4239 11.2515C12.6362 12.0382 12.4739 12.7625 11.9119 13.3744C11.375 13.9613 10.6632 14.2236 9.88895 14.3235C9.50184 14.3734 9.11473 14.3859 8.71513 14.3984C8.39045 14.4109 8.19065 14.5358 8.12821 14.8729C8.0408 15.26 7.9409 15.6596 7.85349 16.0467C7.77856 16.3714 7.59125 16.5213 7.26658 16.5213C7.01683 16.5088 6.76708 16.5338 6.52981 16.5088C6.39245 16.4963 6.26758 16.4089 6.1427 16.3589C6.15519 16.2341 6.15519 16.1217 6.15519 16.0093ZM9.10224 13.1746C9.56428 13.1371 10.0138 13.1122 10.3885 12.775C10.7506 12.4503 10.838 11.8384 10.5758 11.5387C10.3135 11.239 9.30204 11.1142 9.0398 11.3764C8.95239 11.4638 8.90244 11.6012 8.86498 11.7261C8.77757 12.0258 8.71513 12.3255 8.65269 12.6376C8.55279 13.0747 8.65269 13.1871 9.10224 13.1746Z" fill="#143836"/>
<path d="M23.9374 16.5454C23.1132 16.5454 23.1007 16.5329 23.288 15.7462C23.6752 14.0479 24.0623 12.3496 24.4494 10.6513C24.5618 10.1643 24.6866 10.0519 25.1861 10.0644C26.1102 10.0894 27.0593 10.0394 27.9709 10.1768C29.5068 10.4015 30.0563 11.925 29.1197 13.1988C28.6077 13.8856 27.8835 14.2102 27.0593 14.3351C26.6472 14.3976 26.2351 14.41 25.823 14.435C25.361 14.46 25.2611 14.5224 25.1487 14.972C25.0738 15.2967 24.9863 15.6213 24.9114 15.946C24.7865 16.458 24.6742 16.5579 24.1622 16.5579C24.0872 16.5454 24.0123 16.5454 23.9374 16.5454ZM26.6472 11.2757C26.2101 11.2632 25.9978 11.3256 25.9354 11.5754C25.823 11.9875 25.7231 12.412 25.6482 12.8366C25.6357 12.9365 25.7731 13.1613 25.8605 13.1738C26.3725 13.2237 26.8845 13.1863 27.334 12.8616C27.6587 12.6243 27.821 12.1498 27.7086 11.7877C27.5838 11.3881 27.2466 11.3131 26.8844 11.2882C26.8095 11.2882 26.7346 11.2757 26.6472 11.2757Z" fill="#143836"/>
<path d="M19.8914 14.5612C20.0163 14.3989 20.1037 14.3239 20.1537 14.224C20.5533 13.5372 20.9654 12.8629 21.3525 12.1636C21.5773 11.7515 21.877 11.5143 22.3765 11.5642C22.6262 11.5892 22.8635 11.5767 23.1132 11.5642C23.363 11.5517 23.4129 11.6641 23.313 11.8764C23.2631 11.9763 23.2131 12.0762 23.1632 12.1761C21.9644 14.1991 20.7656 16.222 19.5793 18.245C19.3545 18.6197 19.0673 18.8195 18.6302 18.782C18.4429 18.7695 18.2556 18.782 18.0558 18.782C17.6687 18.782 17.6062 18.6821 17.7935 18.3449C17.9933 17.9828 18.1807 17.6082 18.4179 17.271C18.6177 16.9713 18.6302 16.6716 18.5803 16.3469C18.3305 14.8984 18.0932 13.4623 17.8435 12.0138C17.7935 11.6891 17.881 11.5767 18.2056 11.5642C18.368 11.5642 18.5428 11.5642 18.7051 11.5642C19.317 11.5642 19.4419 11.6766 19.5293 12.276C19.6417 13.0128 19.7666 13.737 19.8914 14.5612Z" fill="#143836"/>
<path d="M13.0483 12.8757C12.9609 12.1015 13.2106 11.7394 13.8725 11.627C14.7091 11.4771 15.5583 11.4272 16.3949 11.6395C17.2066 11.8518 17.5063 12.3263 17.3315 13.138C17.1192 14.112 16.8944 15.0735 16.6697 16.0476C16.5823 16.4222 16.4199 16.5471 16.0328 16.5471C15.8705 16.5471 15.6956 16.5471 15.5333 16.5471C15.2336 16.5596 15.0463 16.4472 15.0962 16.0725C14.884 16.1974 14.7091 16.2973 14.5218 16.3972C14.0723 16.622 13.5977 16.7469 13.0982 16.6595C11.9993 16.4721 11.5873 15.3358 12.2741 14.4117C12.6862 13.8498 13.3105 13.6625 13.9599 13.5376C14.4344 13.4502 14.9089 13.4127 15.3835 13.3378C15.5208 13.3128 15.7206 13.2504 15.7456 13.1505C15.808 12.9257 15.6707 12.7384 15.4459 12.7009C15.0463 12.6385 14.6217 12.601 14.2221 12.626C13.8475 12.651 13.4604 12.7883 13.0483 12.8757ZM15.4958 14.2619C14.9214 14.2993 14.347 14.2619 13.8974 14.649C13.7601 14.7738 13.6477 15.0236 13.6602 15.2109C13.6727 15.4731 13.885 15.623 14.1847 15.623C15.1587 15.573 15.3959 15.2858 15.4958 14.2619Z" fill="#143836"/>
<path d="M32.1043 16.1456C31.6672 16.308 31.2426 16.4953 30.8056 16.6326C30.6058 16.6951 30.381 16.6826 30.1687 16.6576C29.0448 16.4953 28.6078 15.2965 29.332 14.3849C29.7566 13.8479 30.356 13.6481 30.9929 13.5357C31.4799 13.4483 31.9669 13.4109 32.4539 13.3359C32.5663 13.311 32.7786 13.1861 32.7661 13.1611C32.7162 13.0113 32.6412 12.7615 32.5288 12.749C32.1292 12.6616 31.7172 12.6241 31.3051 12.6366C30.9929 12.6491 30.6682 12.7615 30.356 12.8489C30.0563 12.9238 29.9814 12.8614 30.0438 12.5617C30.2062 11.7875 30.2436 11.7375 30.9929 11.6251C31.7796 11.5003 32.5788 11.4628 33.353 11.6501C34.2147 11.8624 34.5268 12.3369 34.3395 13.2111C34.1272 14.1851 33.9025 15.1466 33.6652 16.1082C33.5903 16.4079 33.3905 16.5577 33.0908 16.5577C32.9284 16.5577 32.7536 16.5452 32.5913 16.5577C32.2916 16.5577 32.0793 16.4578 32.1043 16.1456ZM32.5039 14.2101C32.0293 14.2975 31.5923 14.3724 31.1677 14.4723C31.0428 14.4973 30.893 14.5847 30.843 14.6846C30.7556 14.8594 30.7057 15.0717 30.7182 15.2715C30.7431 15.5088 30.9429 15.6087 31.1802 15.6087C32.1667 15.6087 32.4789 15.2465 32.5039 14.2101Z" fill="#143836"/>
<path d="M35.301 16.5338C35.2011 16.5338 35.1012 16.5338 35.0013 16.5338C34.6267 16.5213 34.5143 16.3965 34.6017 16.0343C34.9888 14.2486 35.376 12.4629 35.7756 10.6772C35.8755 10.2401 36.0503 10.1152 36.4998 10.1152C36.6747 10.1152 36.862 10.1152 37.0368 10.1152C37.349 10.1277 37.4489 10.2651 37.3864 10.5773C37.0743 12.0008 36.7621 13.4369 36.4374 14.8605C36.3625 15.1727 36.3 15.4974 36.2251 15.8095C36.0628 16.4714 35.9878 16.5338 35.301 16.5338Z" fill="#143836"/>
<rect x="0.25" y="0.25" width="41.5" height="26.5" rx="3.75" stroke="#143836" stroke-opacity="0.5" stroke-width="0.5"/>
</svg>
