<svg width="42" height="27" viewBox="0 0 42 27" fill="none" xmlns="http://www.w3.org/2000/svg">
<rect x="0.25" y="0.25" width="41.5" height="26.5" rx="3.75" stroke="#143836" stroke-opacity="0.5" stroke-width="0.5"/>
<path d="M4.47711 9.21639C4.58014 9.17775 4.68316 9.10048 4.78619 9.10048C6.074 9.0876 7.3747 9.0876 8.66251 9.10048C9.35793 9.10048 9.80867 9.47395 9.93745 10.1694C10.2594 11.895 10.5814 13.6207 10.9033 15.3593C10.9162 15.4108 10.9419 15.4623 10.9806 15.5782C11.2639 14.857 11.5343 14.2002 11.7919 13.5306C12.3328 12.1526 12.8866 10.7618 13.4274 9.37092C13.5047 9.17775 13.5949 9.0876 13.8138 9.10048C14.5865 9.11336 15.3463 9.10048 16.1576 9.10048C16.1061 9.22926 16.0803 9.3194 16.0417 9.40955C14.7796 12.423 13.5176 15.4365 12.2555 18.45C12.1654 18.6561 12.0752 18.7333 11.8434 18.7333C11.0579 18.7205 10.2852 18.7333 9.48672 18.7333C9.15189 17.4455 8.82993 16.1835 8.4951 14.9214C8.16027 13.6078 7.81256 12.2943 7.47772 10.9807C7.38758 10.6072 7.18153 10.311 6.82094 10.1822C6.03537 9.91181 5.2498 9.66712 4.46423 9.40955C4.47711 9.33228 4.47711 9.2679 4.47711 9.21639Z" fill="#143836"/>
<path d="M33.2597 9.09961C33.9294 12.3063 34.5991 15.5001 35.2687 18.7196C34.5218 18.7196 33.8006 18.7196 33.0795 18.7067C33.0279 18.7067 32.9378 18.5908 32.912 18.5264C32.809 18.1272 32.7317 17.728 32.6416 17.2901C32.3583 17.2901 32.0621 17.2901 31.7788 17.2901C31.0833 17.2901 30.4008 17.2901 29.7054 17.2901C29.5251 17.2901 29.4349 17.3416 29.3834 17.5219C29.2804 17.8696 29.1516 18.2045 29.01 18.5393C28.9842 18.6166 28.8941 18.7196 28.8297 18.7196C28.0055 18.7325 27.1941 18.7325 26.3313 18.7325C26.5116 18.2946 26.679 17.8825 26.8464 17.4833C27.8896 14.9978 28.9327 12.5123 29.9758 10.0268C30.272 9.31854 30.5811 9.11249 31.3538 9.11249C31.9848 9.09961 32.603 9.09961 33.2597 9.09961ZM31.5212 11.8555C31.4954 11.8555 31.4826 11.8555 31.4568 11.8555C31.0447 12.9888 30.6326 14.135 30.2076 15.294C30.903 15.294 31.547 15.294 32.2295 15.294C31.9977 14.1221 31.753 12.9888 31.5212 11.8555Z" fill="#143836"/>
<path d="M19.815 16.2349C20.665 16.6727 21.5278 16.9045 22.4293 16.8401C22.7512 16.8144 23.0861 16.7371 23.3823 16.6083C23.9618 16.325 24.0262 15.7197 23.5239 15.3205C23.2664 15.1145 22.9702 14.9728 22.6868 14.7925C22.2876 14.5478 21.8626 14.3418 21.4763 14.0713C19.7764 12.8479 20.2915 10.8775 21.3861 9.96319C22.455 9.07459 23.73 8.82991 25.0693 8.94581C25.6746 8.99732 26.2798 9.16474 26.9366 9.28064C26.7821 10.0147 26.6404 10.6844 26.4988 11.3411C25.9708 11.2124 25.4814 11.045 24.9663 10.9934C24.5284 10.9419 24.0777 11.0192 23.6269 11.0707C23.4853 11.0836 23.3307 11.1995 23.2148 11.2896C22.9058 11.5472 22.88 11.9207 23.1891 12.204C23.3951 12.3972 23.6398 12.5388 23.8716 12.6805C24.3095 12.938 24.7602 13.1699 25.1981 13.4403C27.1556 14.6637 26.576 17.0204 25.2625 17.9734C24.1807 18.7461 22.9444 18.9521 21.6695 18.8491C20.974 18.7847 20.3044 18.6044 19.609 18.4628C19.3771 18.4241 19.3385 18.2954 19.39 18.0764C19.5703 17.484 19.6862 16.8788 19.815 16.2349Z" fill="#143836"/>
<path d="M17.2264 9.1123C18.0764 9.1123 18.8748 9.1123 19.7248 9.1123C19.5831 9.79485 19.4414 10.4516 19.2998 11.1213C18.7847 13.5166 18.2695 15.9248 17.7673 18.3331C17.7029 18.6293 17.6127 18.758 17.2779 18.7452C16.5954 18.7065 15.8999 18.7323 15.1659 18.7323C15.8613 15.4999 16.5439 12.3061 17.2264 9.1123Z" fill="#143836"/>
</svg>
